<?xml version="1.0" encoding="UTF-8"?>
<svg width="31px" height="30px" viewBox="0 0 31 30" version="1.1" xmlns="http://www.w3.org/2000/svg" xmlns:xlink="http://www.w3.org/1999/xlink">
    <!-- Generator: Sketch 48.2 (47327) - http://www.bohemiancoding.com/sketch -->
    <title>coding (2)</title>
    <desc>Created with Sketch.</desc>
    <defs></defs>
    <g id="Desktop-HD" stroke="none" stroke-width="1" fill="none" fill-rule="evenodd" transform="translate(-732.000000, -2100.000000)">
        <g id="Who-we-are" transform="translate(0.000000, 818.000000)" fill="#000000" fill-rule="nonzero">
            <g id="We-Combine-Web-Desig" transform="translate(0.000000, 919.000000)">
                <g id="text" transform="translate(731.000000, 123.000000)">
                    <g id="coding-(2)" transform="translate(1.000000, 240.000000)">
                        <path d="M10.927677,13.2768761 C10.7827136,13.0078897 10.4679652,12.9196888 10.2246729,13.0799923 L4.25047211,17.013058 C4.0951835,17.1152411 4,17.3002589 4,17.5000147 C4,17.6997705 4.0951835,17.8847884 4.25040373,17.9869715 L10.2246046,21.9200372 C10.3068644,21.9742275 10.3972614,22 10.4865643,22 C10.6613409,22 10.8317413,21.9011424 10.9276086,21.7231534 C11.072572,21.4541671 10.9927737,21.106276 10.7494814,20.9461237 L5.5150041,17.5000147 L10.7494814,14.0539058 C10.9928421,13.8937534 11.0726403,13.5458624 10.927677,13.2768761 Z" id="Shape"></path>
                        <path d="M20.0723718,21.7231524 C20.1683077,21.9012176 20.3386402,22 20.5134173,22 C20.6027205,22 20.6931177,21.9742274 20.7753778,21.9200369 L26.7495956,17.9869565 C26.9048846,17.8846975 27,17.6997545 27,17.4999979 C27,17.3002414 26.9048162,17.1152228 26.7495956,17.0130394 L20.7753778,13.079959 C20.5320848,12.9197305 20.2171988,13.0078561 20.0723718,13.2768435 C19.927408,13.5458309 20.0072065,13.8937232 20.2504995,14.0538761 L25.4849916,17.4999979 L20.2504995,20.9461198 C20.0071381,21.1062727 19.9273396,21.454165 20.0723718,21.7231524 Z" id="Shape"></path>
                        <path d="M16.1915036,13.250914 L12.07506,21.11708 C11.9390683,21.3769224 11.9929585,21.729123 12.1955031,21.9037117 C12.271126,21.9688612 12.3567024,22 12.4413954,22 C12.5836301,22 12.7232734,21.9119499 12.8084964,21.749076 L16.92494,13.88291 C17.0609317,13.6230675 17.0070415,13.2708669 16.8044969,13.0962782 C16.6018345,12.9217651 16.3274364,12.9910715 16.1915036,13.250914 Z" id="Shape"></path>
                        <path d="M30.5053191,0 L0.494680851,0 C0.221419149,0 0,0.237035294 0,0.529411765 L0,29.4705882 C0,29.7629647 0.221419149,30 0.494680851,30 L30.5053191,30 C30.7785809,30 31,29.7629647 31,29.4705882 L31,23.8235294 C31,23.5311529 30.7785809,23.2941176 30.5053191,23.2941176 C30.2320574,23.2941176 30.0106383,23.5311529 30.0106383,23.8235294 L30.0106383,28.9411765 L0.989361702,28.9411765 L0.989361702,5.29411765 L30.0106383,5.29411765 L30.0106383,21.7058824 C30.0106383,21.9982588 30.2320574,22.2352941 30.5053191,22.2352941 C30.7785809,22.2352941 31,21.9982588 31,21.7058824 L31,0.529411765 C31,0.237035294 30.7785809,0 30.5053191,0 Z M0.989361702,1.05882353 L19.2925532,1.05882353 L19.2925532,4.23529412 L0.989361702,4.23529412 L0.989361702,1.05882353 Z M20.2819149,4.23529412 L20.2819149,1.05882353 L30.0106383,1.05882353 L30.0106383,4.23529412 L20.2819149,4.23529412 Z" id="Shape"></path>
                        <path d="M25.5,2 C25.2243125,2 25,2.2243125 25,2.5 C25,2.7756875 25.2243125,3 25.5,3 C25.7756875,3 26,2.7756875 26,2.5 C26,2.2243125 25.7756875,2 25.5,2 Z" id="Shape"></path>
                        <path d="M22.5,2 C22.2243125,2 22,2.2243125 22,2.5 C22,2.7756875 22.2243125,3 22.5,3 C22.7756875,3 23,2.7756875 23,2.5 C23,2.2243125 22.7756875,2 22.5,2 Z" id="Shape"></path>
                        <path d="M27.5,2 C27.2243125,2 27,2.2243125 27,2.5 C27,2.7756875 27.2243125,3 27.5,3 C27.7756875,3 28,2.7756875 28,2.5 C28,2.2243125 27.7756875,2 27.5,2 Z" id="Shape"></path>
                    </g>
                </g>
            </g>
        </g>
    </g>
</svg>