<?xml version="1.0" encoding="UTF-8"?>
<svg width="127px" height="30px" viewBox="0 0 127 30" version="1.1" xmlns="http://www.w3.org/2000/svg" xmlns:xlink="http://www.w3.org/1999/xlink">
    <!-- Generator: Sketch 48.2 (47327) - http://www.bohemiancoding.com/sketch -->
    <title>Logo mGroup 127px</title>
    <desc>Created with Sketch.</desc>
    <defs></defs>
    <g id="Main" stroke="none" stroke-width="1" fill="none" fill-rule="evenodd">
        <g id="Logo-mGroup-127px" fill="#FFFFFF">
            <g id="logo">
                <path d="M55.4994951,21.2202689 C54.4260016,21.7786998 53.1718909,22.2337108 51.7371255,22.5853154 C50.3023602,22.9369201 48.7385926,23.1127198 47.0457758,23.1127198 C45.2910268,23.1127198 43.6756497,22.8335085 42.1995961,22.2750776 C40.7235425,21.7166466 39.453949,20.9307186 38.3907775,19.9172699 C37.327606,18.9038212 36.4966932,17.6887351 35.8980141,16.2719752 C35.2993351,14.8552153 35,13.2781886 35,11.540848 C35,9.78282472 35.304496,8.19028635 35.9134971,6.76318511 C36.5224983,5.33608387 37.363733,4.12099778 38.4372265,3.11789038 C39.5107201,2.11478299 40.7699917,1.3443667 42.2150791,0.806618407 C43.6601665,0.268870114 45.2187732,0 46.8909458,0 C48.6250507,0 50.2352669,0.263699535 51.7216425,0.791106515 C53.2080182,1.3185135 54.4156803,2.02688283 55.3446651,2.91623578 L52.0003366,6.73216132 C51.4842339,6.13236515 50.8029886,5.64116013 49.9565803,5.25853154 C49.1101719,4.87590295 48.1502354,4.68459152 47.0767418,4.68459152 C46.1477571,4.68459152 45.2910395,4.85522063 44.5065634,5.19648397 C43.7220874,5.53774731 43.0408421,6.01344059 42.4628071,6.62357808 C41.8847722,7.23371556 41.4357696,7.95759664 41.1157859,8.79524302 C40.7958023,9.6328894 40.6358129,10.5480819 40.6358129,11.540848 C40.6358129,12.5542967 40.7803194,13.4850009 41.0693369,14.3329886 C41.3583544,15.1809763 41.7867132,15.910028 42.3544261,16.5201655 C42.922139,17.1303029 43.6240281,17.6059962 44.4601144,17.9472596 C45.2962007,18.2885229 46.2509763,18.459152 47.3244699,18.459152 C47.9437931,18.459152 48.5321413,18.4126168 49.0895321,18.319545 C49.646923,18.2264732 50.1630179,18.0765264 50.6378324,17.8697001 L50.6378324,13.8676319 L46.4574217,13.8676319 L46.4574217,9.58634953 L55.4994951,9.58634953 L55.4994951,21.2202689 Z M69.5580613,11.2616339 C69.3309761,11.199586 69.1090553,11.1582214 68.8922922,11.1375388 C68.675529,11.1168562 68.4639301,11.106515 68.2574891,11.106515 C67.5762336,11.106515 67.0033682,11.2306089 66.5388758,11.4788004 C66.0743834,11.7269919 65.7027951,12.0268855 65.4240996,12.3784902 C65.1454042,12.7300948 64.9441272,13.1127177 64.8202625,13.5263702 C64.6963979,13.9400228 64.6344665,14.3019633 64.6344665,14.6122027 L64.6344665,22.5542916 L59.5560417,22.5542916 L59.5560417,7.10444674 L64.4486705,7.10444674 L64.4486705,9.33815926 L64.5106025,9.33815926 C64.9028405,8.55221944 65.460223,7.91106763 66.1827667,7.41468459 C66.9053105,6.91830155 67.7413842,6.67011375 68.6910131,6.67011375 C68.8974542,6.67011375 69.0987312,6.68045491 69.2948502,6.70113754 C69.4909692,6.72182017 69.6509587,6.75284364 69.7748233,6.79420889 L69.5580613,11.2616339 Z M87.611242,14.7673216 C87.611242,16.0289618 87.3841602,17.1716598 86.9299899,18.1954498 C86.4758196,19.2192399 85.8565057,20.0878972 85.0720296,20.8014478 C84.2875536,21.5149984 83.3792265,22.0682504 82.3470212,22.4612203 C81.3148159,22.8541902 80.2103728,23.0506722 79.0336587,23.0506722 C77.8775887,23.0506722 76.7783066,22.8541902 75.7357792,22.4612203 C74.6932518,22.0682504 73.7849248,21.5149984 73.0107708,20.8014478 C72.2366168,20.0878972 71.6224638,19.2192399 71.1682935,18.1954498 C70.7141232,17.1716598 70.4870414,16.0289618 70.4870414,14.7673216 C70.4870414,13.5056814 70.7141232,12.368154 71.1682935,11.3547053 C71.6224638,10.3412566 72.2366168,9.48294043 73.0107708,8.77973113 C73.7849248,8.07652182 74.6932518,7.53878159 75.7357792,7.16649431 C76.7783066,6.79420703 77.8775887,6.60806618 79.0336587,6.60806618 C80.2103728,6.60806618 81.3148159,6.79420703 82.3470212,7.16649431 C83.3792265,7.53878159 84.2875536,8.07652182 85.0720296,8.77973113 C85.8565057,9.48294043 86.4758196,10.3412566 86.9299899,11.3547053 C87.3841602,12.368154 87.611242,13.5056814 87.611242,14.7673216 Z M82.7186133,14.7673216 C82.7186133,14.2709386 82.6360381,13.7849041 82.4708852,13.3092037 C82.3057324,12.8335033 82.0683287,12.4146864 81.7586671,12.0527404 C81.4490055,11.6907945 81.0670953,11.3960715 80.6129249,11.1685626 C80.1587546,10.9410537 79.6323378,10.8273009 79.0336587,10.8273009 C78.4349796,10.8273009 77.9085628,10.9410537 77.4543925,11.1685626 C77.0002221,11.3960715 76.6234728,11.6907945 76.3241333,12.0527404 C76.0247937,12.4146864 75.797712,12.8335033 75.6428812,13.3092037 C75.4880504,13.7849041 75.4106361,14.2709386 75.4106361,14.7673216 C75.4106361,15.2637047 75.4880504,15.7497391 75.6428812,16.2254395 C75.797712,16.7011399 76.0299547,17.130298 76.3396163,17.5129266 C76.6492779,17.8955552 77.0311881,18.2006193 77.4853585,18.4281282 C77.9395288,18.6556371 78.4659456,18.7693899 79.0646247,18.7693899 C79.6633038,18.7693899 80.1897206,18.6556371 80.6438909,18.4281282 C81.0980613,18.2006193 81.4799715,17.8955552 81.7896331,17.5129266 C82.0992947,17.130298 82.3315374,16.7011399 82.4863682,16.2254395 C82.641199,15.7497391 82.7186133,15.2637047 82.7186133,14.7673216 Z M100.988556,22.5542916 L100.988556,20.4136505 L100.926624,20.4136505 C100.740827,20.7652551 100.498262,21.0961722 100.198923,21.4064116 C99.8995834,21.716651 99.5486388,21.9855211 99.1460788,22.21303 C98.7435187,22.4405389 98.2996771,22.6266797 97.8145406,22.7714581 C97.3294041,22.9162365 96.8184701,22.9886246 96.2817233,22.9886246 C95.249518,22.9886246 94.3773176,22.8024838 93.6650959,22.4301965 C92.9528743,22.0579092 92.374848,21.5770453 91.9309997,20.9875905 C91.4871514,20.3981356 91.1671725,19.7259603 90.9710535,18.9710445 C90.7749345,18.2161286 90.6768765,17.4457123 90.6768765,16.6597725 L90.6768765,7.10444674 L95.7862673,7.10444674 L95.7862673,15.4808687 C95.7862673,15.9152038 95.8172329,16.3288502 95.8791653,16.7218201 C95.9410976,17.11479 96.0597994,17.4663893 96.2352743,17.7766287 C96.4107492,18.0868681 96.6429919,18.3298854 96.9320094,18.5056877 C97.2210269,18.68149 97.6029372,18.7693899 98.0777516,18.7693899 C98.9654482,18.7693899 99.6415325,18.4384728 100.106025,17.7766287 C100.570517,17.1147847 100.80276,16.3391978 100.80276,15.4498449 L100.80276,7.10444674 L105.881185,7.10444674 L105.881185,22.5542916 L100.988556,22.5542916 Z M127,14.7673216 C127,15.8428182 126.83485,16.876934 126.504544,17.8697001 C126.174238,18.8624662 125.69427,19.7362941 125.064625,20.4912099 C124.434979,21.2461258 123.665998,21.8510836 122.757657,22.3061013 C121.849317,22.7611191 120.817127,22.9886246 119.661057,22.9886246 C118.711428,22.9886246 117.813423,22.7973132 116.967014,22.4146846 C116.120606,22.032056 115.460005,21.5098275 114.98519,20.8479835 L114.923258,20.8479835 L114.923258,30 L109.844833,30 L109.844833,7.10444674 L114.67553,7.10444674 L114.67553,8.99689762 L114.768428,8.99689762 C115.243243,8.37641882 115.898683,7.83350801 116.734769,7.36814891 C117.570856,6.90278981 118.556597,6.67011375 119.692023,6.67011375 C120.806805,6.67011375 121.818351,6.88727808 122.726691,7.32161324 C123.635032,7.7559484 124.404013,8.34539442 125.033659,9.08996898 C125.663304,9.83454354 126.148433,10.6980302 126.489061,11.680455 C126.829689,12.6628798 127,13.691825 127,14.7673216 Z M122.076405,14.7673216 C122.076405,14.2709386 121.998991,13.7849041 121.84416,13.3092037 C121.689329,12.8335033 121.462248,12.4146864 121.162908,12.0527404 C120.863569,11.6907945 120.486819,11.3960715 120.032649,11.1685626 C119.578479,10.9410537 119.052062,10.8273009 118.453383,10.8273009 C117.875348,10.8273009 117.359253,10.9410537 116.905082,11.1685626 C116.450912,11.3960715 116.063841,11.695965 115.743857,12.0682523 C115.423874,12.4405396 115.176148,12.8645271 115.000673,13.3402275 C114.825198,13.8159279 114.737462,14.3019624 114.737462,14.7983454 C114.737462,15.2947284 114.825198,15.7807629 115.000673,16.2564633 C115.176148,16.7321637 115.423874,17.1561512 115.743857,17.5284385 C116.063841,17.9007257 116.450912,18.2006193 116.905082,18.4281282 C117.359253,18.6556371 117.875348,18.7693899 118.453383,18.7693899 C119.052062,18.7693899 119.578479,18.6556371 120.032649,18.4281282 C120.486819,18.2006193 120.863569,17.9007257 121.162908,17.5284385 C121.462248,17.1561512 121.689329,16.7269931 121.84416,16.2409514 C121.998991,15.7549097 122.076405,15.2637047 122.076405,14.7673216 Z" id="Group"></path>
                <path d="M26.8750442,22.2772543 C26.8750442,20.0848736 26.8750442,17.2317265 26.8750442,13.717813 C26.8750442,13.2772513 26.8437948,12.8524303 26.781295,12.4433373 C26.7187952,12.0342443 26.604214,11.6828492 26.437548,11.3891414 C26.2708819,11.0954336 26.0469277,10.859422 25.7656787,10.6810994 C25.4844298,10.5027768 25.114645,10.4136168 24.6563133,10.4136168 C24.2188149,10.4136168 23.8386136,10.5080215 23.5156981,10.6968336 C23.1927827,10.8856458 22.9219544,11.1373916 22.7032052,11.4520785 C22.4844559,11.7667654 22.3230006,12.1286499 22.2188343,12.5377429 C22.114668,12.9468359 22.0625857,13.3716569 22.0625857,13.8122186 L22.0625857,22.2772543 C19.112548,23.0909256 17.4042294,23.0909256 16.9376299,22.2772543 C16.9376299,19.548159 16.9376299,16.5691377 16.9376299,13.3401905 C16.9376299,12.438088 16.7605498,11.7248084 16.4063844,11.2003302 C16.0522191,10.675852 15.4897295,10.4136168 14.718899,10.4136168 C13.9064019,10.4136168 13.2762053,10.7387884 12.8282903,11.3891414 C12.3803752,12.0394944 12.1564211,12.8366893 12.1564211,13.78075 L12.1564211,22.2772543 C8.696582,23.2409152 6.97784682,23.2409152 7.00021554,22.2772543 C7.10988515,17.5526065 7.10988515,12.3288298 7.00021554,6.60592416 C10.312687,5.79802528 11.9689227,5.79802528 11.9689227,6.60592416 C11.9689227,7.5986112 11.9689227,8.32238749 11.9689227,8.77725304 C12.2189215,8.44158699 12.4532921,8.11641539 12.7345411,7.80172847 C13.0157901,7.48704155 13.3543254,7.20907228 13.7501573,6.96781231 C14.1459892,6.72655233 14.5886893,6.53249831 15.0782709,6.38564442 C15.5678525,6.23879052 16.1043008,6.16536468 16.687632,6.16536468 C17.8126279,6.16536468 18.7657352,6.39613162 19.5469824,6.85767243 C20.3282295,7.31921325 20.9375932,7.98004586 21.3750916,8.84019011 C21.895923,8.02200412 22.5625773,7.37166091 23.3750744,6.88914097 C24.1875714,6.40662103 25.1771363,6.16536468 26.3437988,6.16536468 C27.4062949,6.16536468 28.2969033,6.3594187 29.0156507,6.74753256 C29.7343981,7.13564643 30.3125124,7.63913795 30.7500108,8.25802222 C31.1875092,8.87690649 31.5052116,9.56920733 31.7031276,10.3349455 C31.9010435,11.1006837 32,11.8506762 32,12.5849457 L32,22.2772543 C28.5833628,23.0148618 26.8750442,23.0148618 26.8750442,22.2772543 Z" id="m"></path>
                <path d="M5,20.5 C5,21.2142893 4.75660309,21.8095214 4.26980198,22.2857143 C3.78300087,22.7619071 3.20132351,23 2.52475248,23 C2.17821609,23 1.85231176,22.9362251 1.5470297,22.8086735 C1.24174765,22.6811218 0.973598515,22.5068038 0.742574257,22.2857143 C0.51155,22.0646247 0.330033663,21.8052736 0.198019802,21.5076531 C0.0660059406,21.2100325 0,20.8826548 0,20.5255102 C0,20.1853724 0.0660059406,19.8622464 0.198019802,19.5561224 C0.330033663,19.2499985 0.51155,18.982144 0.742574257,18.752551 C0.973598515,18.522958 1.24174765,18.3401367 1.5470297,18.2040816 C1.85231176,18.0680265 2.17821609,18 2.52475248,18 C3.20132351,18 3.78300087,18.2380929 4.26980198,18.7142857 C4.75660309,19.1904786 5,19.7857107 5,20.5 Z" id="."></path>
            </g>
        </g>
    </g>
</svg>