<?xml version="1.0" encoding="UTF-8"?>
<svg width="14px" height="13px" viewBox="0 0 14 13" version="1.1" xmlns="http://www.w3.org/2000/svg" xmlns:xlink="http://www.w3.org/1999/xlink">
    <!-- Generator: Sketch 48.2 (47327) - http://www.bohemiancoding.com/sketch -->
    <title></title>
    <desc>Created with Sketch.</desc>
    <defs></defs>
    <g id="Desktop-HD" stroke="none" stroke-width="1" fill="none" fill-rule="evenodd" transform="translate(-472.000000, -3787.000000)">
        <g id="Testimonials" transform="translate(0.000000, 3387.000000)" fill="#F5A623">
            <g id="Testimonial-4" transform="translate(250.000000, 370.000000)">
                <path d="M235.5,35.0546875 C235.5,35.1692714 235.432292,35.2942702 235.296875,35.4296875 L232.460938,38.1953125 L233.132812,42.1015625 C233.138021,42.138021 233.140625,42.1901038 233.140625,42.2578125 C233.140625,42.367188 233.113282,42.459635 233.058594,42.5351562 C233.003906,42.6106775 232.92448,42.6484375 232.820312,42.6484375 C232.721354,42.6484375 232.617188,42.6171878 232.507812,42.5546875 L229,40.7109375 L225.492188,42.5546875 C225.377604,42.6171878 225.273438,42.6484375 225.179688,42.6484375 C225.070312,42.6484375 224.988282,42.6106775 224.933594,42.5351562 C224.878906,42.459635 224.851562,42.367188 224.851562,42.2578125 C224.851562,42.2265623 224.856771,42.1744795 224.867188,42.1015625 L225.539062,38.1953125 L222.695312,35.4296875 C222.565104,35.2890618 222.5,35.164063 222.5,35.0546875 C222.5,34.8619782 222.645832,34.7421877 222.9375,34.6953125 L226.859375,34.125 L228.617188,30.5703125 C228.716146,30.3567698 228.843749,30.25 229,30.25 C229.156251,30.25 229.283854,30.3567698 229.382812,30.5703125 L231.140625,34.125 L235.0625,34.6953125 C235.354168,34.7421877 235.5,34.8619782 235.5,35.0546875 Z" id=""></path>
            </g>
        </g>
    </g>
</svg>