<?xml version="1.0" encoding="UTF-8"?>
<svg width="55px" height="82px" viewBox="0 0 55 82" version="1.1" xmlns="http://www.w3.org/2000/svg" xmlns:xlink="http://www.w3.org/1999/xlink">
    <!-- Generator: Sketch 48.2 (47327) - http://www.bohemiancoding.com/sketch -->
    <title>mouse</title>
    <desc>Created with Sketch.</desc>
    <defs></defs>
    <g id="scroll_down" stroke="none" stroke-width="1" fill="none" fill-rule="evenodd" transform="translate(-103.000000, -89.000000)">
        <g id="mouse" transform="translate(103.000000, 89.000000)" fill="#FFFFFF" fill-rule="nonzero">
            <path d="M27.5,0 C12.3361445,0 0,12.2563137 0,27.3200833 L0,54.6814756 C0,69.7448554 12.3361445,82 27.5,82 C42.6638555,82 55,69.7452451 55,54.6814756 L55,27.3200833 C55,12.2563137 42.6634635,0 27.5,0 Z M51.944488,54.6814756 C51.944488,68.0706702 40.9786777,78.9630063 27.5,78.9630063 C14.0213223,78.9630063 3.05551199,68.0706702 3.05551199,54.6814756 L3.05551199,27.3200833 C3.05551199,13.9308886 14.0213223,3.03699374 27.5,3.03699374 C40.9786777,3.03699374 51.944488,13.9304989 51.944488,27.3200833 L51.944488,54.6814756 Z" id="Shape"></path>
            <path d="M27.5,9 C26.6716705,9 26,9.68781337 26,10.5378134 L26,24.4621866 C26,25.3121866 26.6716705,26 27.5,26 C28.3283295,26 29,25.3121866 29,24.4621866 L29,10.5378134 C28.9996151,9.68781337 28.3283295,9 27.5,9 Z" id="Shape"></path>
        </g>
    </g>
</svg>