<?xml version="1.0" encoding="UTF-8"?>
<svg width="31px" height="30px" viewBox="0 0 31 30" version="1.1" xmlns="http://www.w3.org/2000/svg" xmlns:xlink="http://www.w3.org/1999/xlink">
    <!-- Generator: Sketch 48.2 (47327) - http://www.bohemiancoding.com/sketch -->
    <title>layers (1)</title>
    <desc>Created with Sketch.</desc>
    <defs></defs>
    <g id="Desktop-HD" stroke="none" stroke-width="1" fill="none" fill-rule="evenodd" transform="translate(-732.000000, -2173.000000)">
        <g id="Who-we-are" transform="translate(0.000000, 818.000000)" fill="#000000" fill-rule="nonzero">
            <g id="We-Combine-Web-Desig" transform="translate(0.000000, 919.000000)">
                <g id="text" transform="translate(731.000000, 123.000000)">
                    <g id="Design" transform="translate(1.000000, 306.000000)">
                        <g id="layers-(1)" transform="translate(0.000000, 7.000000)">
                            <path d="M25.5528725,11.8875464 L31,8.78240967 L15.5002821,0 L0,8.78240967 L5.44712755,11.8875464 L0,14.973547 L5.44712755,18.0786837 L0,21.1646843 L15.5002821,30 L31,21.1646843 L25.5528725,18.0786837 L31,14.973547 L25.5528725,11.8875464 Z M15.5002821,1.29451052 L28.7203974,8.78522382 L15.5002821,16.3215264 L2.27960257,8.78522382 L15.5002821,1.29451052 Z M6.58608265,12.5364902 L15.5002821,17.6177254 L24.4144815,12.5364902 L28.7203974,14.9763611 L15.5002821,22.5126637 L2.27960257,14.9763611 L6.58608265,12.5364902 Z M28.7203974,21.1674984 L15.5002821,28.703801 L2.27960257,21.1674984 L6.58608265,18.7276275 L15.5002821,23.8088627 L24.4144815,18.7276275 L28.7203974,21.1674984 Z" id="Shape"></path>
                        </g>
                    </g>
                </g>
            </g>
        </g>
    </g>
</svg>