<?xml version="1.0" standalone="no"?>
<!DOCTYPE svg PUBLIC "-//W3C//DTD SVG 20010904//EN"
 "http://www.w3.org/TR/2001/REC-SVG-20010904/DTD/svg10.dtd">
<svg version="1.0" xmlns="http://www.w3.org/2000/svg"
 width="700.000000pt" height="700.000000pt" viewBox="0 0 700.000000 700.000000"
 preserveAspectRatio="xMidYMid meet">
<metadata>
Created by potrace 1.11, written by Peter Selinger 2001-2013
</metadata>
<g transform="translate(0.000000,700.000000) scale(0.100000,-0.100000)"
fill="#000000" stroke="none">
<path d="M395 6981 c-96 -28 -162 -68 -235 -141 -75 -74 -119 -150 -144 -247
-14 -55 -16 -369 -16 -3093 0 -3344 -5 -3081 61 -3213 39 -77 149 -187 226
-226 132 -66 -131 -61 3213 -61 3344 0 3081 -5 3213 61 77 39 187 149 226 226
66 132 61 -131 61 3213 0 3344 5 3081 -61 3213 -39 77 -149 187 -226 226 -132
66 132 61 -3219 60 -2863 0 -3042 -1 -3099 -18z m1408 -1710 c26 -13 53 -33
60 -44 8 -15 14 -99 17 -265 l5 -243 84 106 c125 157 218 235 378 314 203 100
408 138 661 121 131 -9 222 -26 326 -62 213 -73 407 -231 526 -429 23 -38 44
-69 45 -69 2 0 26 32 55 70 133 184 341 345 542 420 251 93 634 99 896 14 384
-126 656 -463 752 -932 38 -189 40 -254 40 -1363 l0 -1085 -168 -32 c-270 -52
-427 -73 -592 -79 -184 -7 -256 5 -303 47 l-32 28 -6 1039 c-5 924 -7 1047
-23 1123 -43 219 -171 367 -344 400 -86 17 -222 8 -294 -20 -160 -60 -293
-224 -342 -421 -33 -132 -35 -220 -36 -1150 l0 -935 -152 -37 c-84 -20 -207
-46 -273 -58 -149 -27 -391 -36 -477 -19 -71 14 -144 47 -173 80 -20 22 -20
40 -25 1069 -6 1041 -6 1046 -28 1126 -75 273 -227 388 -490 372 -105 -6 -179
-32 -260 -91 -97 -71 -180 -206 -224 -361 -23 -80 -23 -80 -28 -1080 l-5
-1000 -65 -17 c-309 -84 -572 -130 -755 -132 -132 -1 -143 1 -197 26 -96 45
-90 -30 -78 900 8 569 8 1075 1 1688 -6 481 -8 877 -3 881 9 9 307 73 437 94
185 30 230 34 365 31 118 -2 142 -5 183 -25z"/>
</g>
</svg>
